<?xml version="1.0" encoding="UTF-8"?>
<svg xmlns="http://www.w3.org/2000/svg" width="1200" height="630" viewBox="0 0 1200 630" fill="none" role="img" aria-label="Affisell Marge 300%">
  <defs>
    <linearGradient id="affisell-bg" x1="0" y1="0" x2="1200" y2="630" gradientUnits="userSpaceOnUse">
      <stop offset="0" stop-color="#A78BFA"/>
      <stop offset="0.45" stop-color="#7C3AED"/>
      <stop offset="1" stop-color="#4F46E5"/>
    </linearGradient>
    <linearGradient id="affisell-shine" x1="200" y1="80" x2="900" y2="420" gradientUnits="userSpaceOnUse">
      <stop offset="0" stop-color="#FFFFFF" stop-opacity="0.28"/>
      <stop offset="1" stop-color="#FFFFFF" stop-opacity="0"/>
    </linearGradient>
    <linearGradient id="mark-bg" x1="0" y1="0" x2="64" y2="64" gradientUnits="userSpaceOnUse">
      <stop offset="0" stop-color="#C4B5FD"/>
      <stop offset="0.5" stop-color="#7C3AED"/>
      <stop offset="1" stop-color="#4338CA"/>
    </linearGradient>
  </defs>

  <rect width="1200" height="630" fill="url(#affisell-bg)"/>
  <rect width="1200" height="630" fill="url(#affisell-shine)"/>

  <circle cx="1050" cy="120" r="180" fill="#FFFFFF" fill-opacity="0.06"/>
  <circle cx="180" cy="520" r="140" fill="#FFFFFF" fill-opacity="0.05"/>

  <text
    x="88"
    y="300"
    fill="#FFFFFF"
    font-family="Inter, ui-sans-serif, system-ui, -apple-system, Segoe UI, sans-serif"
    font-size="112"
    font-weight="800"
    letter-spacing="-2"
  >MARGE 300%</text>

  <text
    x="92"
    y="372"
    fill="#FFFFFF"
    fill-opacity="0.92"
    font-family="Inter, ui-sans-serif, system-ui, -apple-system, Segoe UI, sans-serif"
    font-size="40"
    font-weight="500"
  >Le programme affili&#233; e-commerce</text>

  <g transform="translate(944, 518)">
    <rect width="64" height="64" rx="14" fill="url(#mark-bg)" stroke="#FFFFFF" stroke-opacity="0.22" stroke-width="2"/>
    <g fill="#FFFFFF" transform="translate(32, 32) scale(0.11) translate(-256, -256)">
      <path d="M256 148c4.2 0 7.6 3.4 7.6 7.6 0 28.4 23 51.4 51.4 51.4 4.2 0 7.6 3.4 7.6 7.6s-3.4 7.6-7.6 7.6c-28.4 0-51.4 23-51.4 51.4 0 4.2-3.4 7.6-7.6 7.6s-7.6-3.4-7.6-7.6c0-28.4-23-51.4-51.4-51.4-4.2 0-7.6-3.4-7.6-7.6s3.4-7.6 7.6-7.6c28.4 0 51.4-23 51.4-51.4 0-4.2 3.4-7.6 7.6-7.6Z"/>
      <circle cx="168" cy="176" r="10" opacity="0.92"/>
      <circle cx="344" cy="192" r="8" opacity="0.78"/>
    </g>
    <text
      x="80"
      y="42"
      fill="#FFFFFF"
      font-family="Inter, ui-sans-serif, system-ui, -apple-system, Segoe UI, sans-serif"
      font-size="36"
      font-weight="700"
      letter-spacing="-0.5"
    >Affisell</text>
  </g>
</svg>
