<svg xmlns="http://www.w3.org/2000/svg" viewBox="0 0 512 512" fill="none" role="img" aria-label="Affisell">
  <defs>
    <linearGradient id="affisell-bg" x1="64" y1="48" x2="448" y2="464" gradientUnits="userSpaceOnUse">
      <stop offset="0" stop-color="#A78BFA"/>
      <stop offset="0.45" stop-color="#7C3AED"/>
      <stop offset="1" stop-color="#4F46E5"/>
    </linearGradient>
    <linearGradient id="affisell-shine" x1="128" y1="96" x2="384" y2="320" gradientUnits="userSpaceOnUse">
      <stop offset="0" stop-color="#FFFFFF" stop-opacity="0.42"/>
      <stop offset="1" stop-color="#FFFFFF" stop-opacity="0"/>
    </linearGradient>
  </defs>
  <rect width="512" height="512" rx="112" fill="url(#affisell-bg)"/>
  <rect width="512" height="512" rx="112" fill="url(#affisell-shine)"/>
  <rect x="8" y="8" width="496" height="496" rx="104" stroke="#FFFFFF" stroke-opacity="0.18" stroke-width="4"/>
  <!-- Primary sparkle (Lucide-inspired) -->
  <g fill="#FFFFFF">
    <path
      d="M256 148c4.2 0 7.6 3.4 7.6 7.6 0 28.4 23 51.4 51.4 51.4 4.2 0 7.6 3.4 7.6 7.6s-3.4 7.6-7.6 7.6c-28.4 0-51.4 23-51.4 51.4 0 4.2-3.4 7.6-7.6 7.6s-7.6-3.4-7.6-7.6c0-28.4-23-51.4-51.4-51.4-4.2 0-7.6-3.4-7.6-7.6s3.4-7.6 7.6-7.6c28.4 0 51.4-23 51.4-51.4 0-4.2 3.4-7.6 7.6-7.6Z"
    />
    <circle cx="168" cy="176" r="10" opacity="0.92"/>
    <circle cx="344" cy="192" r="8" opacity="0.78"/>
    <circle cx="320" cy="328" r="9" opacity="0.85"/>
    <path
      d="M372 300l14 6-14 6-6 14-6-14-14-6 14-6 6-14 6 14Z"
      opacity="0.9"
    />
  </g>
</svg>
